<?xml version="1.0" encoding="utf-8"?>
<!-- Generator: Adobe Illustrator 19.2.1, SVG Export Plug-In . SVG Version: 6.00 Build 0)  -->
<svg version="1.1" id="layer" xmlns="http://www.w3.org/2000/svg" xmlns:xlink="http://www.w3.org/1999/xlink" x="0px" y="0px"
	 viewBox="0 0 652 652" style="enable-background:new 0 0 652 652;" xml:space="preserve">
<g id="Layer_2">
	<g id="Layer_1-2">
		<g id="Laptop_Logo">
			<path d="M83.9,345.9H47v-95.7c0-2.6-2.1-4.8-4.8-4.8H25c-2.4,0-4.3,1.9-4.3,4.3c0,0,0,0,0,0v114.8c0,2.4,1.9,4.3,4.3,4.3h58.4
				c2.4,0,4.3-1.9,4.3-4.3v-14.4c0.3-2-1-3.9-3-4.3C84.4,345.9,84.1,345.9,83.9,345.9z"/>
			<path d="M311.6,282.3c-4.3-4.9-9.7-8.6-15.8-11c-6.5-2.8-13.5-4.1-20.6-3.8c-6.8-0.1-13.5,1.4-19.6,4.3
				c-6.2,2.7-11.2,7.4-14.4,13.4h-0.5v-10.5c0-2.4-1.9-4.3-4.3-4.3l0,0h-14.4c-2.4,0-4.3,1.9-4.3,4.3c0,0,0,0,0,0v119.6
				c0,2.4,1.9,4.3,4.3,4.3l0,0h15.8c2.4,0,4.3-1.9,4.3-4.3c0,0,0,0,0,0v-37.3h0.5c1.4,1.4,2.9,3.3,4.8,5.3c2.1,2,4.5,3.6,7.2,4.8
				c3,1.6,6.2,2.9,9.6,3.8c4.1,1,8.2,1.5,12.4,1.4c6.7,0,13.4-1.3,19.6-3.8c5.8-2.7,11-6.4,15.3-11c4.4-4.8,7.9-10.5,10-16.7
				c2.3-6.6,3.5-13.6,3.3-20.6c0.1-7-1-14-3.3-20.6C319.3,293.3,315.9,287.4,311.6,282.3z M297.7,330.6c-1.3,3.5-3.3,6.7-5.7,9.6
				c-2.6,2.8-5.7,5-9.1,6.7c-8,3.2-16.9,3.2-24.9,0c-3.6-1.4-6.7-3.7-9.1-6.7c-2.5-2.8-4.4-6.1-5.7-9.6c-1.3-3.5-2-7.2-1.9-11
				c-0.1-3.8,0.5-7.5,1.9-11c1.3-3.5,3.3-6.7,5.7-9.6c2.6-2.8,5.7-5,9.1-6.7c8-3.2,16.9-3.2,24.9,0c3.6,1.4,6.7,3.7,9.1,6.7
				c2.5,2.8,4.4,6.1,5.7,9.6c1.3,3.5,2,7.2,1.9,11C299.7,323.4,299.1,327.1,297.7,330.6z"/>
			<path d="M196.3,269.8h-14.4c-2.4,0-4.3,1.9-4.3,4.3c0,0,0,0,0,0v10.5h-0.5c-3.4-5.7-8.4-10.4-14.4-13.4
				c-6.1-2.9-12.8-4.4-19.6-4.3c-7,0-14,1.3-20.6,3.8c-6,2.5-11.3,6.3-15.8,11c-4.5,4.8-7.7,10.5-9.6,16.7
				c-2.3,6.6-3.5,13.6-3.3,20.6c-0.1,7,1,14,3.3,20.6c2.3,6.1,5.7,11.8,10,16.7c4.1,4.9,9.4,8.6,15.3,11c6.2,2.8,12.9,4.1,19.6,3.8
				c4.2,0.1,8.4-0.4,12.4-1.4c3.3-0.9,6.5-2.2,9.6-3.8c2.5-1.4,4.9-3,7.2-4.8c1.7-1.6,3.3-3.4,4.8-5.3h0.5v9.1
				c0,2.4,1.9,4.3,4.3,4.3l0,0h15.8c2.4,0,4.3-1.9,4.3-4.3c0,0,0,0,0,0v-90.4C201.1,272,198.9,269.8,196.3,269.8z M174.8,330.6
				c-1.3,3.5-3.3,6.7-5.7,9.6c-2.6,2.8-5.7,5-9.1,6.7c-8,3.2-16.9,3.2-24.9,0c-3.6-1.4-6.7-3.7-9.1-6.7c-2.5-2.8-4.4-6.1-5.7-9.6
				c-1.3-3.5-2-7.2-1.9-11c-0.1-3.8,0.5-7.5,1.9-11c1.3-3.5,3.3-6.7,5.7-9.6c2.6-2.8,5.7-5,9.1-6.7c8-3.2,16.9-3.2,24.9,0
				c3.6,1.4,6.7,3.7,9.1,6.7c2.5,2.8,4.4,6.1,5.7,9.6c1.3,3.5,2,7.2,1.9,11C176.8,323.4,176.1,327.1,174.8,330.6z"/>
			<path d="M483.9,281.8c-4.9-4.8-10.8-8.4-17.2-10.5c-6.7-2.5-13.9-3.8-21.1-3.8c-7.2,0-14.3,1.3-21.1,3.8
				c-6.4,2.4-12.2,5.9-17.2,10.5c-4.8,4.7-8.7,10.2-11.5,16.3c-3,6.8-4.5,14.1-4.3,21.5c-0.1,7.4,1.4,14.7,4.3,21.5
				c2.7,6.1,6.6,11.7,11.5,16.3c4.9,4.8,10.8,8.4,17.2,10.5c6.7,2.5,13.9,3.8,21.1,3.8c7.2,0,14.3-1.3,21.1-3.8
				c6.4-2.4,12.2-5.9,17.2-10.5c4.8-4.7,8.7-10.2,11.5-16.3c3-6.8,4.5-14.1,4.3-21.5c0.1-7.4-1.4-14.7-4.3-21.5
				C492.6,291.9,488.7,286.4,483.9,281.8z M472.8,330.6c-1.3,3.5-3.3,6.7-5.7,9.6c-2.6,2.8-5.7,5-9.1,6.7c-8,3.2-16.9,3.2-24.9,0
				c-3.6-1.4-6.7-3.7-9.1-6.7c-2.5-2.8-4.4-6.1-5.7-9.6c-1.3-3.5-2-7.2-1.9-11c-0.1-3.8,0.5-7.5,1.9-11c1.3-3.5,3.3-6.7,5.7-9.6
				c2.6-2.8,5.7-5,9.1-6.7c8-3.2,16.9-3.2,24.9,0c3.6,1.4,6.7,3.7,9.1,6.7c2.5,2.8,4.4,6.1,5.7,9.6c1.3,3.5,2,7.2,1.9,11
				C474.9,323.4,474.2,327.1,472.8,330.6z"/>
			<path d="M616.4,299c-2.1-6.1-5.4-11.8-9.6-16.7c-4.2-4.8-9.5-8.5-15.3-11c-6.5-2.8-13.5-4.1-20.6-3.8c-6.8-0.1-13.5,1.4-19.6,4.3
				c-6.2,2.7-11.2,7.4-14.4,13.4h-0.5v-10.5c0-2.4-1.9-4.3-4.3-4.3l0,0h-14.4c-2.4,0-4.3,1.9-4.3,4.3c0,0,0,0,0,0v119.6
				c0,2.4,1.9,4.3,4.3,4.3l0,0h15.8c2.4,0,4.3-1.9,4.3-4.3c0,0,0,0,0,0v-37.3h0.5c1.4,1.4,2.9,3.3,4.8,5.3c2.1,2,4.5,3.6,7.2,4.8
				c3,1.6,6.2,2.9,9.6,3.8c4.1,1,8.2,1.5,12.4,1.4c6.7,0,13.4-1.3,19.6-3.8c5.8-2.7,11-6.4,15.3-11c4.4-4.8,7.9-10.5,10-16.7
				c2.3-6.6,3.5-13.6,3.3-20.6C620.1,312.9,618.6,305.9,616.4,299z M592.9,330.6c-1.3,3.5-3.3,6.7-5.7,9.6c-2.6,2.8-5.7,5-9.1,6.7
				c-8,3.2-16.9,3.2-24.9,0c-3.6-1.4-6.7-3.7-9.1-6.7c-2.5-2.8-4.4-6.1-5.7-9.6c-1.3-3.5-2-7.2-1.9-11c-0.1-3.8,0.5-7.5,1.9-11
				c1.3-3.5,3.3-6.7,5.7-9.6c2.6-2.8,5.7-5,9.1-6.7c8-3.2,16.9-3.2,24.9,0c3.6,1.4,6.7,3.7,9.1,6.7c2.5,2.8,4.4,6.1,5.7,9.6
				c1.3,3.5,2,7.2,1.9,11C595,323.4,594.3,327.1,592.9,330.6z"/>
			<path d="M381.9,270.3h-17.2v-20.6c0-2.4-1.9-4.3-4.3-4.3c0,0,0,0,0,0h-15.8c-2.4,0-4.3,1.9-4.3,4.3c0,0,0,0,0,0v20.1h-7.2
				c-2.4,0-4.3,1.9-4.3,4.3c0,0,0,0,0,0v12c0,2.4,1.9,4.3,4.3,4.3l0,0h7.2v45.9c-0.1,5.1,0.4,10.3,1.4,15.3c0.7,4,2.3,7.8,4.8,11
				c2.7,3.1,6.1,5.5,10,6.7c5.3,1.7,10.8,2.5,16.3,2.4c3.4-0.1,6.7-0.4,10-1c2.1-0.4,3.7-2.2,3.8-4.3v-12c-0.2-2.5-2.3-4.3-4.8-4.3
				h-6.2c-2.4-0.3-4.7-1.1-6.7-2.4l-1.4-1.4c-2.1-3.6-3.1-7.8-2.9-12v-43.1h17.2c2.4,0,4.3-1.9,4.3-4.3l0,0v-12.4
				C386.2,272.3,384.3,270.3,381.9,270.3z"/>
		</g>
	</g>
</g>
</svg>
